<svg xmlns="http://www.w3.org/2000/svg" xmlns:xlink="http://www.w3.org/1999/xlink" width="300" height="26.1" viewBox="0 0 300 26.1"><style>.st0{clip-path:url(#SVGID_2_);fill:#231F20;} .st1{clip-path:url(#SVGID_4_);fill:#231F20;}</style><defs><path id="SVGID_1_" d="M0 0h300v26.1H0z"/></defs><clipPath id="SVGID_2_"><use xlink:href="#SVGID_1_" overflow="visible"/></clipPath><path class="st0" d="M300 24.3c0 1-.7 1.8-1.6 1.8s-1.6-.7-1.6-1.8c0-1 .7-1.8 1.6-1.8s1.6.8 1.6 1.8M273.4 18h4.3l-2.2-10.6-2.1 10.6zm15.6 7.2h1.5c3.2 0 4.1-3.8 4.5-7.8h.6v8.5h-19.1v-.5l.8-.1c1.6-.3 1.6-.7 1.2-3l-.7-3.4h-4.6l-.5 2.5c-.6 2.9-.3 3.6.9 3.8l.8.1v.5h-5.2v-.5l.6-.2c1-.3 1.3-.9 1.8-3.4L276.2 0h1.1l4.8 22.5c.5 2.3.7 2.8 2 2.8 1.2 0 1.6-.6 1.6-1.7V2.5c0-1-.3-1.4-1.1-1.6l-.8-.2V.2h7.4v.6l-1 .2c-.7.1-1.1.5-1.1 1.5v22.7zM256.2.9l-.5-.2V.2h4.9l6.7 17V4.9c0-2.8.1-3.7-1.9-4.1l-.6-.2V.2h5.5v.5l-.5.2c-1.6.4-1.5 1.7-1.5 4.3V26H267l-8.4-20.6v15.8c0 3 0 3.9 2.4 4.2v.5h-5.4v-.5l.7-.1c1.4-.3 1.3-1.6 1.3-4.3V3.1c-.6-1.3-.8-2-1.4-2.2M246 12.4h1.2c2.1 0 3.1-.6 3.1-5.5 0-5-1.4-6-2.9-6H246v11.5zm-5.2 13l.8-.2c.7-.2 1.1-.6 1.1-1.6V2.5c0-1.2-.6-1.7-1.9-1.7-1.6 0-2.1.7-2.1 2.9v16.2c0 4-1.4 6.2-4.9 6.2-3.6 0-5.7-2.2-5.7-6.1V2.5c0-1-.3-1.4-1-1.6l-.8-.2V.2h7.4v.5l-1 .2c-.8.2-1.2.5-1.2 1.5v17.8c0 3.6 1 4.6 3 4.6 2.2 0 3.2-1.3 3.2-4.9V5c0-3.1 0-3.9-1.4-4.2l-.7-.2V.2h12.3c3.2 0 6.1 2 6.1 6.2 0 3.3-1.5 5.5-4.6 6.4 3.4.6 3.4 2.2 3.7 6.5l.2 3.3c.1 1.8.2 2.2.7 2.2.6 0 .8-1.3.8-2.5v-.6h.6v.9c0 2.1-.4 3.5-2.6 3.5-2.1 0-3.1-1.2-3.2-5.5l-.2-4.8c-.1-2.3-.6-2.6-1.7-2.6H246v10.4c0 1 .3 1.5 1.1 1.6l.8.2v.5h-7.2v-.5zM219.4.9c-1.9 0-2.8 1.5-2.8 12 0 10.9.9 12.4 2.8 12.4s2.8-1.5 2.8-12.5c.1-10.4-.8-11.9-2.8-11.9m0 25.2c-4.4 0-6.5-5.9-6.5-13.1 0-7.1 2.1-13 6.5-13s6.5 5.9 6.5 13c.1 7.2-1.9 13.1-6.5 13.1m-8.7-6.1c0 4-2 6.1-5.1 6.1-2.8 0-4.4-2.3-4.4-4.8 0-1.9 1.5-2.9 2.6-2.8.8.1 1.6.7 1.5 2-.1 1.9-2.1 1.8-2.2 3-.1.7.9 1.8 2.1 1.8 2.1 0 2.1-2.7 2.1-4.7V2.5c0-1-.3-1.3-1.2-1.5l-.9-.2V.2h7.4v.5l-.8.2c-.7.2-1 .5-1 1.6V20zm-20.5 3.6c0 1.2.3 1.4 1.1 1.6l1.2.3v.5h-7.7v-.5l1-.2c.7-.2 1.1-.6 1.1-1.6V.9h-.9c-2.3 0-3.3 3.8-3.5 7.8h-.6V.2h13.2v8.5h-.6c-.3-4-1.2-7.8-3.5-7.8h-.8v22.7zm-16.7 1.6h2.6c3.4 0 4-3.8 4.4-7.8h.6v8.5h-12.9v-.5l.8-.2c.7-.2 1.1-.6 1.1-1.6v-21c0-1-.3-1.4-1.1-1.6l-.8-.2V.2h12.5v8.5h-.6c-.4-4-1.2-7.8-4.1-7.8h-2.6v11.2h1.2c1.6-.1 2.2-1.5 2.6-4.7h.6v10.4h-.6c-.3-4.1-1-4.7-2.7-4.8h-1.2v12.2zm-13.9 0h2.6c3.4 0 4-3.8 4.4-7.8h.6v8.5h-12.9v-.5l.8-.2c.7-.2 1.1-.6 1.1-1.6v-21c0-1-.3-1.4-1.1-1.6l-.8-.2V.2h12.5v8.5h-.6c-.4-4-1.2-7.8-4.1-7.8h-2.6v11.2h1.2c1.6-.1 2.2-1.5 2.6-4.7h.6v10.4h-.6c-.3-4.1-1-4.7-2.7-4.8h-1.2v12.2zm-14.9-12.8h1.2c2.1 0 3.1-.6 3.1-5.5 0-5-1.4-6-2.9-6h-1.5v11.5zm-5.3 13l.8-.2c.7-.2 1.1-.6 1.1-1.6V2.5c0-1-.3-1.4-1.1-1.6l-.8-.2V.2h7.1c3.2 0 6.1 2 6.1 6.2 0 3.3-1.5 5.5-4.6 6.4 3.4.6 3.4 2.2 3.7 6.5l.2 3.3c.1 1.8.2 2.2.7 2.2.6 0 .8-1.3.8-2.5v-.6h.6v.9c0 2.1-.4 3.5-2.6 3.5-2.1 0-3.1-1.2-3.2-5.5l-.2-4.8c-.1-2.3-.6-2.6-1.7-2.6h-1.8v10.4c0 1 .3 1.5 1.1 1.6l.8.2v.5h-7.2v-.5zm-5.7-1.8c0 1 .3 1.4 1.1 1.6l1 .2v.5h-7.5v-.5l1-.2c.7-.2 1.1-.6 1.1-1.6V.9h-.8c-2.3 0-3.3 3.8-3.5 7.8h-.6V.2h13.2v8.5h-.7c-.3-4-1.2-7.8-3.5-7.8h-.8v22.7zm-13.8 2.5c-2.2 0-2.9-1.5-3.6-1.5-.4 0-.9.1-1.3 1.3h-.4v-8.5h.6c.4 4.8 2.2 7.8 4.7 7.8 1.7 0 2.8-1.5 2.8-4.3 0-5.8-8.3-8.3-8.3-14.8 0-3.5 1.8-6.1 5-6.1 2.1 0 2.5 1.3 3.4 1.3.5 0 .8-.4 1-1.2h.4v8.5h-.6c-.4-4.3-1.6-7.8-4.3-7.8-1.9 0-2.2 1.9-2.2 3.1 0 5.6 8.3 7.5 8.3 15.2 0 4.1-2.2 7-5.5 7m-18.7-.9h1.5c3.2 0 4.1-3.8 4.5-7.8h.6v8.5H95.9v-.5l.8-.2c.7-.2 1.1-.6 1.1-1.6V2.5c0-1-.3-1.4-1.1-1.6l-.8-.2V.2h7.4v.6l-1 .2c-.7.1-1.1.5-1.1 1.5v22.7zM72.8 18H77L74.9 7.4 72.8 18zm15.7 7.2H90c3.2 0 4.1-3.8 4.5-7.8h.6v8.5H76v-.5l.8-.1c1.6-.3 1.6-.7 1.2-3l-.7-3.4h-4.6l-.5 2.5c-.6 2.9-.3 3.6.9 3.8l.8.1v.5h-5.2v-.5l.6-.2c1-.3 1.3-.9 1.8-3.4L75.6 0h1.1l4.8 22.5c.5 2.3.7 2.8 2.1 2.8 1.2 0 1.6-.6 1.6-1.7V2.5c0-1-.3-1.4-1.1-1.6l-.8-.2V.2h7.4v.6l-1 .2c-.7.1-1.1.5-1.1 1.5v22.7zM52 3.6c-.5-2.2-.8-2.5-1.5-2.7l-.7-.2V.2h7v.5l-.6.1c-1.2.3-1.1 1.5-.7 3.1l3 14.6 2.2-11.7-.8-4c-.3-1.4-.4-1.9-1.2-2.1l-.5-.1V.2H65v.5l-.8.2c-1.2.2-1 1.6-.7 3l2.8 14.6 2.8-13.9c.5-2.9.3-3.6-.9-3.8l-.8-.2V.2h5.1v.5l-.7.2c-.9.2-1.1.9-1.6 3.4L65.6 26h-1L61.1 9l-3.2 17h-1.2L52 3.6zM36.4 25.2H39c3.4 0 4-3.8 4.4-7.8h.6v8.5H31.1v-.5l.8-.2c.7-.2 1.1-.6 1.1-1.6v-21c0-1-.3-1.4-1.1-1.6l-.8-.2V.2h12.5v8.5H43c-.4-4-1.2-7.8-4.1-7.8h-2.6v11.2h1.2c1.6-.1 2.2-1.5 2.6-4.7h.6v10.4h-.6c-.3-4.1-1-4.7-2.7-4.8h-1.2v12.2zm-22.4.2l.8-.2c.7-.2 1.1-.6 1.1-1.6V2.5c0-1-.3-1.4-1.1-1.6L14 .7V.2h7.3v.5l-.9.2c-.7.2-1.1.5-1.1 1.5v9.8H25V2.5c0-1-.4-1.3-1.1-1.5L23 .7V.2h7.3v.5l-.8.2c-.7.2-1.1.5-1.1 1.6v21c0 1 .3 1.5 1.1 1.6l.8.2v.5H23v-.5l.9-.2c.7-.2 1.1-.6 1.1-1.6V13.2h-5.6v10.4c0 1 .4 1.5 1.1 1.6l.9.2v.5H14v-.5zm-5.7-1.8c0 1.2.3 1.4 1.1 1.6l1.2.3v.5H2.8v-.5l1-.2c.7-.2 1.1-.6 1.1-1.6V.9h-.8C1.8.9.8 4.7.6 8.7H0V.2h13.2v8.5h-.6c-.3-4-1.2-7.8-3.5-7.8h-.8v22.7z"/></svg>
